<svg viewBox="0 0 7842 6961" xmlns="http://www.w3.org/2000/svg" xml:space="preserve" style="fill-rule:evenodd;clip-rule:evenodd;stroke-linejoin:round;stroke-miterlimit:2"><path d="m500 1464.2-.5-23.8.6 29 .5 24.7s18.5 15.8 41.8-1l-.7-29.8-41.7 1Z" style="fill:#f05582;fill-rule:nonzero" transform="translate(-498.8 -939.2) scale(4.16667)"/><path d="M541.3 1441.7v-2.2 2.2Z" style="fill:#452763;fill-rule:nonzero" transform="translate(-498.8 -939.2) scale(4.16667)"/><path d="M541.7 1463.3v-1.7 1.7Z" style="fill:#b0e1f2;fill-rule:nonzero" transform="translate(-498.8 -939.2) scale(4.16667)"/><path d="M541.3 1441.7v-2.2l-41.8 1 .5 23.7 41.7-1v-1.6l-.4-20Z" style="fill:#f05582;fill-rule:nonzero" transform="translate(-498.8 -939.2) scale(4.16667)"/><path d="m541.2 1439.5-41.7 1 .5 23.7 41.7-1v-1.6l-.4-20v-2.1Z" style="fill:#b33d61;fill-rule:nonzero" transform="translate(-498.8 -939.2) scale(4.16667)"/><path d="M293.3 1479.6s16 18.3 41.5 5l1.1-9.1 1.8-14.6-41.5-5.1 2.9-23.3-4.4 35.3-1.4 11.8Z" style="fill:#f05582;fill-rule:nonzero" transform="translate(-498.8 -939.2) scale(4.16667)"/><path d="M401.2 1530.2v-.2.2ZM293.3 1479.6a48.8 48.8 0 0 0-4.7 36.3l112.6 13.7c3.7-36.7-66.4-45-66.4-45a33.7 33.7 0 0 1-41.5-5Z" style="fill:#41c6ec;fill-rule:nonzero" transform="translate(-498.8 -939.2) scale(4.16667)"/><path d="m288.6 1515.9-.8 6.7 112.6 13.8.8-6.2V1529.6l-112.6-13.8Z" style="fill:#fff;fill-rule:nonzero" transform="translate(-498.8 -939.2) scale(4.16667)"/><path d="m340.6 1437.1-3 23.8 3-23.8Z" style="fill:#bbbdc0;fill-rule:nonzero" transform="translate(-498.8 -939.2) scale(4.16667)"/><path d="m299 1432.5-2.8 23.3 41.5 5 2.9-23.7-41.5-4.6Z" style="fill:#f05582;fill-rule:nonzero" transform="translate(-498.8 -939.2) scale(4.16667)"/><path d="m299 1432.5-2.8 23.3 41.5 5 2.9-23.7-41.5-4.6Z" style="fill:#b33d61;fill-rule:nonzero" transform="translate(-498.8 -939.2) scale(4.16667)"/><path d="m340.6 1437.1 52 5.8c15.4-28.6 30-65.6 43.5-107.6 66.2-204.8 109.2-529.1 116.9-589.5l-160.8 3.7-.2-.8c-79.5 168.4-43.6 350.4-43.6 350.4a210 210 0 0 0-6.9 9.8c-71.8 108.2-76.5 319.8-76.5 319.8l34 3.8 41.6 4.6Z" style="fill:#41c6ec;fill-rule:nonzero" transform="translate(-498.8 -939.2) scale(4.16667)"/><path d="M523 350.6Z" style="fill:#508589;fill-rule:nonzero" transform="translate(-498.8 -939.2) scale(4.16667)"/><path d="m482.8 411 7-15.3a28 28 0 0 1-6.4.6 23 23 0 0 1-31.5-22.6c-.9.2-1.5.2-2.1.2L433 410.6l42-1c2.7.1 5.3.6 7.7 1.4Z" style="fill:#f05582;fill-rule:nonzero" transform="translate(-498.8 -939.2) scale(4.16667)"/><path d="M472.2 393.8c-9-4-14.8-12.2-16.4-21.2-1.5.5-2.9 1-4 1.1a23 23 0 0 0 31.6 22.6 28 28 0 0 1-11.2-2.5Z" style="fill:#f05582;fill-rule:nonzero" transform="translate(-498.8 -939.2) scale(4.16667)"/><path d="M455.8 372.6c-1.5.5-2.9 1-4 1.1v1.3a23 23 0 0 0 31.6 21.3 28.7 28.7 0 0 1-27.6-23.7Z" style="fill:#bc4167;fill-rule:nonzero" transform="translate(-498.8 -939.2) scale(4.16667)"/><path d="M501.2 310c6.2 17.5-5 29.4-12.9 35.3a8 8 0 0 1-10 11.5c-3 4.4-8.8 10-20.1 14.9l-2.4 1a28.7 28.7 0 0 0 34 23 28.3 28.3 0 0 0 20-16l13.2-29 1.7-3.9.3-.8c-12.5-10.8-23.8-36-23.8-36Z" style="fill:#f05582;fill-rule:nonzero" transform="translate(-498.8 -939.2) scale(4.16667)"/><path d="m553 745.8 5.1-.2h1.3l-1.5-16.1c-24.6-2.3-48-15.3-67.7-45-126-190-69-225.7-69-225.7S449 420.5 500 464c16.1 13.8 28 34 37 55.3-7.4-44-22.8-99.3-54-108.2-2.5-.8-5-1.3-7.8-1.4l-42 1h-1.7s-76.8 39.5-69.3 118.5c10.6 111 28.3 210.7 30 219.6v.8l160.9-3.8Z" style="fill:#2f1347;fill-rule:nonzero" transform="translate(-498.8 -939.2) scale(4.16667)"/><path d="M455.8 372.6c.8-.3 1.5-.5 2.4-1a45.8 45.8 0 0 0 20.1-14.8 8 8 0 1 1 10-11.5c8-5.9 19.1-17.8 13-35.3 0 0 11.2 25.2 23.7 36 7.5 6.3 15.3 7.7 21.7-4.2 0 0 4.5-12.8-6.7-23.7 0 0 28-18-8.7-26.3 0 0 9.4-33.5-41.6-7.6 0 0 4.1-9.7-3.1-11.5-5-1.2-5.5 4-5.3 7.4-.9-5-4-13.6-16-5.8-15.9 10.4 2.2 13.4 2.2 13.4s-42.9 6.1-29.9 37.6c0 0-15.9 35.8 13.7 31.2 0 0-10.5 17-1.5 17.4.6 0 1.2 0 2-.2 1.1-.1 2.5-.6 4-1Z" style="fill:#4f3271;fill-rule:nonzero" transform="translate(-498.8 -939.2) scale(4.16667)"/><path d="M480 353.1a4 4 0 1 1 3.2-7.1 4 4 0 0 1-3.3 7.1Zm8.8-.3a8 8 0 1 0-10.5 4 8 8 0 0 0 10.5-4Z" style="fill:#f05582;fill-rule:nonzero" transform="translate(-498.8 -939.2) scale(4.16667)"/><path d="M485.1 351.2a4 4 0 1 0-7.1-3.3 4 4 0 0 0 7.1 3.3Z" style="fill:#f05582;fill-rule:nonzero" transform="translate(-498.8 -939.2) scale(4.16667)"/><path d="M481.6 345.6h-.1Z" style="fill:#bc4167;fill-rule:nonzero" transform="translate(-498.8 -939.2) scale(4.16667)"/><path d="M1665.6 592c39.2-16.2 65 11 60.5 35.1-4.1 22.3-22 74.7-75.6 67.2 18 19.5 34.6 48.3 31.8 86.7-8.5 118.4-25.3 224.5-25.3 224.5h.7l1 1.9c88.1 93.5 101.6 219 100.1 296.3 50-35.7 100.8-90.7 150-172 245-405-48.4-617.2-267.5-565.7-12.8 3-25.6 6.4-38.5 9.8 8.2 23.4 27.2 31 62.8 16.2ZM1488.3 989.1c-90.2 10.4-199.5-122.3-199.5-122.3a88 88 0 0 1 4.4-12.3l-10.6-5c-70.8 0-63.8-46.4-63.8-46.8l-14.9-6.5a3.3 3.3 0 0 1-1.7-4.3l.1-.3a3.3 3.3 0 0 1 4.4-1.7l94 40.8c1.6.8 2.4 2.7 1.7 4.4l-.2.3a3.3 3.3 0 0 1-2.7 2l3 1.1c1.9-2.4 3.2-3.7 3.2-3.7 104.2-9 177.3 38.4 177.3 38.4s3.4-51.3 21.7-98.2c6.5-44.7 20.8-101.3 52.3-111.1l-7.4-15.3a28.7 28.7 0 0 1-20.7-15.8l-12-25s-2-2-4.6-5.6c-17.1 5-34.3 10-51.5 14.7 1.7 8 2.5 16.4 2.3 24.9-1.1 54.3-43 95.1-151.9 95.1-27 0-49.2-2.3-67.6-6.5a74.7 74.7 0 0 1-31 27.6s-9.7-20.9-9.5-43.1c-31.3-19-40.3-48-39.7-79.4l.1-2.5c-76.2-19.7-156-63-241-143.8l-12.6-11.9c-19.6-.2-36.5-2-51-4.9a73.5 73.5 0 0 1-29.9 27.8S819 480 818.8 458c-31.2-17.9-40.8-46.2-40.9-77.2 0-4.4.3-8.6.8-12.8C530.1 185 257.8 126.7 167.2 509c0 0-102.3 357 174.3 600a210 210 0 0 1 7-10s-36-181.9 43.5-350.3a2975 2975 0 0 1-29.9-219.6c-7.5-79 69.3-118.5 69.3-118.5h1.7l16.7-36.7c-9-.5 1.5-17.4 1.5-17.4-29.6 4.6-13.7-31.2-13.7-31.2-13-31.5 29.9-37.6 29.9-37.6s-18.1-3-2.1-13.4c11.9-7.8 15 .9 15.9 5.8-.2-3.5.4-8.6 5.3-7.4 7.2 1.8 3.1 11.5 3.1 11.5 51-26 41.6 7.6 41.6 7.6 36.7 8.4 8.7 26.3 8.7 26.3 11.2 11 6.7 23.7 6.7 23.7-6.4 11.9-14.2 10.5-21.7 4.2l-.3.8-1.7 3.8-13.3 29.1a28.3 28.3 0 0 1-20 16l-6.9 15.3c31.3 8.9 46.7 64.2 54 108.2 19.1 45.7 23.6 96 23.6 96s71-48.2 173.7-41.8c0 0 1.3 1.3 3.2 3.6l2.9-1.2c-1.1 0-2.2-.7-2.7-1.8l-.2-.4c-.7-1.6 0-3.5 1.6-4.2l91.7-42.4c1.6-.8 3.5 0 4.2 1.5l.2.4c.8 1.6 0 3.5-1.5 4.3l-14.6 6.7c0 .4 8 46-61.7 47.4l-10.3 5.3c1.6 3.5 3.2 7.5 4.6 12 0 0-104.6 133-193.6 124.9l1.5 16.1h-1.3c5.9 42.3 21 158 31 287.3 8-5.8 16.4-11.2 25.2-16.1l63 247 9.4 1-45.1-261.6a276 276 0 0 1 64.1-18.6l28.8 283.6 6.9.3-9.4-286.9a282.5 282.5 0 0 1 29.6-.4l7.3 287.6 5-.1 8.9-285.9c7.7 1 15.4 2 23 3.6l-10.4 281.5c2.3 0 4.6-.2 7-.4l26-275.5a275 275 0 0 1 30.5 10.8l-4.4 259 3.1-.6 12.7-253.3c7.7 3.7 15.3 7.8 22.6 12.1l-18 238 5-1 26.9-228.2a278.6 278.6 0 0 1 46.9 40.2l-43.5 180.4 10-3 47-161.9c12 15 22.6 31.1 31.3 48.3l-37.3 98a352.7 352.7 0 0 0 33.8-17.2l20.6-39.4c2.4 7.3 4.4 14.7 6.1 22.3 157.4-102.4 323.6 61.2 323.6 61.2s45.7 45.4 116.7 76.1c2.7-202.6 25.1-328.3 25.1-328.3l1.2-16.4Z" style="fill:#c6e9f8;fill-rule:nonzero" transform="translate(-498.8 -939.2) scale(4.16667)"/><path d="m625 1255.8 13 2.3-44.5-161.1c1.5 26 2.8 52.3 3.7 78.3l27.8 80.5Z" style="fill:#c6e9f8;fill-rule:nonzero" transform="translate(-498.8 -939.2) scale(4.16667)"/><path d="M1074.3 1708.7a104 104 0 0 1 12.4 6.1c19.4 8.4 62.7 23 135.7 26.3h63.1c38.8-1.6 83.4-6.2 134.6-15.2 15.7-2.8 31.4-5.3 46.9-7.6l-3.3-75.4c-.7-17.2-1.2-35.3-1.5-54-6 .8-12.9.1-20.8-3.2-35-14.6-13.4-52.4-13.4-52.4a115.2 115.2 0 1 0-210 0h-.2s15.7 48.8-5.3 76c-23.3 30.3-58.6 2-58.6 2a71 71 0 0 0-103 90.8c8.2 1.4 16 3.5 23.4 6.6ZM1696.8 1639a51 51 0 0 0-48.4 35c-4.9 9.2-15.5 21.5-34.7 11.3-28.3-15-7.6-46.2-7.6-46.2a68 68 0 0 0-36.2-102.6 972.5 972.5 0 0 1-18.8 85.6l-22 88c81.7-9.2 157.2-12.6 218.2-13.2a50.9 50.9 0 0 0-50.5-57.8Z" style="fill:#0d9eda;fill-rule:nonzero" transform="translate(-498.8 -939.2) scale(4.16667)"/><path d="M961.2 1440.7a276.9 276.9 0 0 0 67-164.8L918 1436.1l22.7 1.7c7 0 14 1 20.6 2.9ZM995 1213.6l-100.2 191.7 66.4-174.5 37.3-98a278.1 278.1 0 0 0-31.3-48.3l-47 161.9-54.1 186.4 44.1-183.4 43.5-180.4c-14.1-15-29.8-28.6-47-40.2L879.9 1257l-13.7 116.2 8.7-115.1 18.1-238c-7.3-4.5-14.9-8.5-22.6-12.2l-12.7 253.3-4.8 96.6 1.7-96 4.4-259a275 275 0 0 0-30.6-10.8l-26 275.5-11.3 120 4.4-119.6 10.3-281.5c-7.5-1.5-15.2-2.7-22.9-3.6l-8.8 285.9-2.8 90.2-2.3-90.1-7.3-287.6a272.7 272.7 0 0 0-29.6.4l9.4 286.9 3.3 100.3-10.2-100.5-28.8-283.7a276 276 0 0 0-64.1 18.6l45.1 261.6 19.4 111.8-28.8-112.9-63-247c-8.8 5-17.2 10.4-25.3 16.2 1.7 21 3.2 42.5 4.5 64l44.5 161.2 49.3 178-62.3-180.3-27.8-80.5c1.3 40 1.7 79.1.7 116l58.5 142.6-58.9-129.3c-.7 21.7-2 42.5-3.9 62l30.8 64-31.5-57a608.9 608.9 0 0 1-5.6 41.3l16.1 23.4-17.1-18c-1.2 6.3-2.4 12.4-3.8 18.2l-41.3 1v2.2c5.2 5.8 10.5 11.5 16.1 16.9 153.7-28.9 294-26 353.4-22.9l115.1-217.7a276.4 276.4 0 0 0-10.2-43.8l-20.6 39.4Z" style="fill:#452763;fill-rule:nonzero" transform="translate(-498.8 -939.2) scale(4.16667)"/><path d="M1833.5 1731a49.6 49.6 0 0 1 14.2 34.3l2.6 6.4-106.8 43.4-2.3-5.8-.1-.2-.2-.4c-13.2-34.8 52.4-61.4 53.2-61.7l-25.6-50.3a2224 2224 0 0 0-239.4 13.5l-17.1 68.2c6.4 20.3.1 34.3-1.3 37.1l-.3 6.9-115.1-4.8.2-6.3V1810.7c2.4-37.2 73.2-34.1 74-34l-2.5-58.4c-15.5 2.3-31.2 4.8-47 7.6-51 9-95.7 13.5-134.5 15.1a729 729 0 0 1-63.1 0c-73-3.3-116.3-17.8-135.7-26.2a104.4 104.4 0 0 0-52.7-14.1c-55.9 0-101.2 43.3-101.2 96.7 0 53.5 45.3 96.8 101.2 96.8 0 0 150 9.8 286.7-26.4 136.8-36.2 272.7-13 272.7-13s254.8 51 302.9 39.4c55.9 0 101.2-43.3 101.2-96.8 0-53.4-45.3-96.7-101.2-96.7 0 0-25.6-2.1-69-3.3l6.2 33.6ZM557.3 1458.6l-15.6 3v1.7l.7 29.8s70.6-2 72.2 35v.6l.2 6.2-113.4 2.5-.2-6.7a48.9 48.9 0 0 1-.6-36.6l-.5-24.7c-70 11.5-124 11.1-164.2 6l-1.1 9.3s70 8.2 66.4 44.9V1530.2l-.8 6.2-112.6-13.8.8-6.7c-1-3-4.8-17.6 4.7-36.3l1.4-11.8a213 213 0 0 1-43.9-15.9 78 78 0 0 0-44.9-14.1c-47.6 0-86.2 43.3-86.2 96.8 0 53.4 38.6 96.7 86.2 96.7 0 0 127.8 9.8 244.3-26.4 116.6-36.2 232.3-13 232.3-13s217.2 51 258 39.4c47.7 0 86.3-43.3 86.3-96.7 0-45.5-28-83.5-65.6-94a77.7 77.7 0 0 0-20.6-2.8s-8.1-.8-22.7-1.7c-2.3 0-4.7-.2-7.2-.4-59.4-3-199.7-6-353.4 22.9Z" style="fill:#b0e1f2;fill-rule:nonzero" transform="translate(-498.8 -939.2) scale(4.16667)"/><path d="M614.7 1528.7v-.3.3ZM500.6 1494a48.8 48.8 0 0 0 .6 36.7v-.1l113.4-2.6c-1.6-36.8-72.1-34.9-72.2-34.9a33.7 33.7 0 0 1-41.8 1Z" style="fill:#41c6ec;fill-rule:nonzero" transform="translate(-498.8 -939.2) scale(4.16667)"/><path d="m501.2 1530.7.2 6.7 113.4-2.6-.2-6.1v-.7l-113.4 2.6Z" style="fill:#fff;fill-rule:nonzero" transform="translate(-498.8 -939.2) scale(4.16667)"/><path d="M436.1 1335.3a931.8 931.8 0 0 0 19.1 106.2l44.2-1 41.8-1 41.3-1a396.2 396.2 0 0 0 4.8-23.6c2.2-12.9 4.1-26.7 5.6-41.3l.7-7a1049.6 1049.6 0 0 0 4.3-75.3c1-36.9.6-76-.7-116A2982.7 2982.7 0 0 0 589 1033c-10-129.4-25-245-30.9-287.3l-5.1.1c-7.7 60.5-50.7 384.8-116.9 589.6Z" style="fill:#0d9eda;fill-rule:nonzero" transform="translate(-498.8 -939.2) scale(4.16667)"/><path d="M757.2 587.3s-8.6-4.3-7.5-15.4l-8 3.7c-.5.2-1 .2-1.5.2l-2.9 1.2c2.5 3.1 6.2 8.3 9.6 15.6l10.3-5.3Z" style="fill:#f05582;fill-rule:nonzero" transform="translate(-498.8 -939.2) scale(4.16667)"/><path d="M499.9 464c-51-43.5-78.7-5.2-78.7-5.2s-57 35.7 69 225.7c19.6 29.7 43 42.7 67.7 45 89 8.2 193.6-124.9 193.6-124.9a86.1 86.1 0 0 0-14.2-27.6 45 45 0 0 0-3.2-3.6c-102.8-6.4-173.7 41.8-173.7 41.8s-4.5-50.3-23.6-96c-8.8-21.3-20.8-41.5-37-55.3Z" style="fill:#452763;fill-rule:nonzero" transform="translate(-498.8 -939.2) scale(4.16667)"/><path d="M749.7 571.9a15.4 15.4 0 0 0 7.5 15.4c69.7-1.5 61.8-47 61.7-47.4l-69.2 32Z" style="fill:#f05582;fill-rule:nonzero" transform="translate(-498.8 -939.2) scale(4.16667)"/><path d="m796.5 545 16.6-7.6a1 1 0 0 1 1.4.5l.1.2a1 1 0 0 1-.5 1.4l-16.6 7.7a1 1 0 0 1-1.4-.6v-.1a1 1 0 0 1 .4-1.4Zm21.9-10 7-3.3a1 1 0 0 1 1.4.6 1 1 0 0 1-.4 1.5l-7 3.3a1 1 0 0 1-1.5-.6v-.1a1 1 0 0 1 .5-1.4Zm-76.6 40.6 7.9-3.7 69.2-32 14.6-6.7a3.2 3.2 0 0 0 1.5-4.3l-.2-.4a3.2 3.2 0 0 0-4.2-1.5l-91.7 42.4a3.2 3.2 0 0 0-1.6 4.2l.2.4c.5 1.1 1.6 1.7 2.7 1.8.5 0 1 0 1.6-.2Z" style="fill:#4f3271;fill-rule:nonzero" transform="translate(-498.8 -939.2) scale(4.16667)"/><path d="M796 546.6c.3.6 1 .8 1.5.6l16.6-7.7c.5-.3.7-.9.5-1.4v-.2a1 1 0 0 0-1.5-.5l-16.6 7.7a1 1 0 0 0-.5 1.4v.1ZM818 536.5c.2.6.8.8 1.3.6l7-3.3c.6-.2.8-.9.6-1.4v-.1a1 1 0 0 0-1.5-.6l-7 3.3a1 1 0 0 0-.5 1.4v.1Z" style="fill:#674a9e;fill-rule:nonzero" transform="translate(-498.8 -939.2) scale(4.16667)"/><path d="M852.3 362.4a19.7 19.7 0 1 1 1 39.4 19.7 19.7 0 0 1-1-39.4Zm69.8-1.6a19.7 19.7 0 1 1 .9 39.4 19.7 19.7 0 0 1-1-39.4Zm69.7-1.6a19.7 19.7 0 1 1 1 39.4 19.7 19.7 0 0 1-1-39.4Zm-173 98.8.1-6.4s23.4-11.7 42.9 15.9c0 0-1 2-2.8 4.9 14.4 3 31.3 4.7 51 5l15.7-.1c107.2-2.5 147.4-43.7 147.3-97.1-.1-53.5-36.8-102.2-147.7-96.5-100.6 5.2-140.7 37.7-146.6 84.3-.5 4.2-.8 8.4-.8 12.8 0 31 9.7 59.3 40.9 77.2Z" style="fill:#14b7db;fill-rule:nonzero" transform="translate(-498.8 -939.2) scale(4.16667)"/><path d="M992.7 398.6a19.7 19.7 0 1 0-.9-39.4 19.7 19.7 0 0 0 1 39.4ZM923 400.2a19.7 19.7 0 1 0-1-39.4 19.7 19.7 0 0 0 1 39.4ZM853.2 401.8a19.7 19.7 0 1 0-1-39.4 19.7 19.7 0 0 0 1 39.4Z" style="fill:#fff;fill-rule:nonzero" transform="translate(-498.8 -939.2) scale(4.16667)"/><path d="M819 451.6c-.2 2.2-.3 4.3-.2 6.4.3 22 10.2 42.2 10.2 42.2a73.5 73.5 0 0 0 30-27.8c1.8-3 2.8-5 2.8-5-19.5-27.5-42.9-15.8-42.9-15.8Z" style="fill:#14b7db;fill-rule:nonzero" transform="translate(-498.8 -939.2) scale(4.16667)"/><path d="M1219.4 638.6a20 20 0 1 1 40 0 20 20 0 0 1-40 0Zm90.9-20a20 20 0 1 1 0 40 20 20 0 0 1 0-40Zm70.8 0a20 20 0 1 1 0 40 20 20 0 0 1 0-40Zm-178 96.3c0-2.2 0-4.3.3-6.5 0 0 24-11.4 43.2 17 0 0-1 2-3 5a305 305 0 0 0 67.6 6.5c109 0 150.8-40.8 151.9-95.1.2-8.5-.6-16.8-2.3-25-9.7-43.7-50.3-79.1-145.5-76.4-109.5 3.1-149.4 39.7-151.7 92.6l-.2 2.5c-.6 31.5 8.4 60.5 39.7 79.4Z" style="fill:#452763;fill-rule:nonzero" transform="translate(-498.8 -939.2) scale(4.16667)"/><path d="M1381.1 658.6a20 20 0 1 0 0-40 20 20 0 0 0 0 40ZM1310.3 658.6a20 20 0 1 0 0-40 20 20 0 0 0 0 40ZM1239.4 658.6a20 20 0 1 0 0-40 20 20 0 0 0 0 40Z" style="fill:#fff;fill-rule:nonzero" transform="translate(-498.8 -939.2) scale(4.16667)"/><path d="M1203.4 708.4c-.2 2.2-.3 4.3-.3 6.5-.2 22.2 9.4 43 9.4 43a74.7 74.7 0 0 0 34-32.4c-19-28.5-43-17.1-43-17.1Z" style="fill:#452763;fill-rule:nonzero" transform="translate(-498.8 -939.2) scale(4.16667)"/><path d="M1512 1778.8h-.2c-.6 6-10 10.5-21.5 10-11.5-.4-20.5-5.6-20.7-11.7l-.1-.5c-.8 0-71.6-3-74 34.1l115.2 4.8a49.6 49.6 0 0 0 1.3-37.1v.4ZM1395.5 1811.3v-.2.2Z" style="fill:#2f1347;fill-rule:nonzero" transform="translate(-498.8 -939.2) scale(4.16667)"/><path d="M1395.6 1810.7V1811.3l-.3 6.3 115.1 4.8.3-6.9-115.1-4.8Z" style="fill:#fff;fill-rule:nonzero" transform="translate(-498.8 -939.2) scale(4.16667)"/><path d="m1463.8 1643 3.2 75.3 2.5 58.3v.5h.1c.2 6 9.2 11.3 20.7 11.8 11.4.4 20.9-4 21.5-10h.1v-.5l17.2-68.2 22-88c7-26.4 13.7-55.5 18.8-85.8a587 587 0 0 0 8.8-130.3c-72.8 3.2-100.6-15.8-111-28.7-4 72.8-6.3 146.2-5.5 211.5.3 18.7.8 36.8 1.6 54Z" style="fill:#d93e78;fill-rule:nonzero" transform="translate(-498.8 -939.2) scale(4.16667)"/><path d="M1776.6 1703a787.6 787.6 0 0 1-43.2-75.3l35.1 69 25.6 50.3a34.2 34.2 0 0 0 39.4-16l-6.2-33.6-23-124.8c11.9 69.4 14 122.3 14 122.3l-41.7 8Z" style="fill:#f05582;fill-rule:nonzero" transform="translate(-498.8 -939.2) scale(4.16667)"/><path d="m1741 1808.7 106.7-43.4c.1-3.1 0-18.5-14.3-34.3 0 0-10.8 22.2-39.3 16-.8.3-66.4 26.9-53.1 61.7ZM1741.2 1809.3l-.1-.2v.2Z" style="fill:#2f1347;fill-rule:nonzero" transform="translate(-498.8 -939.2) scale(4.16667)"/><path d="M1741 1808.7v.4l.2.2 2.3 5.8 106.8-43.4-2.6-6.4-106.8 43.4Z" style="fill:#fff;fill-rule:nonzero" transform="translate(-498.8 -939.2) scale(4.16667)"/><path d="M1733.4 1627.7a787.6 787.6 0 0 0 43.2 75.3l41.7-8.2s-2.1-52.8-14-122.2c-10.4-61-28.2-134.8-58.7-196.8a967 967 0 0 1-112.3 24.8 2667 2667 0 0 0 100.1 227.1ZM1657 1005.5l1.8 1.9-1.1-2-.7.1ZM1591.7 662.4c-5-5.4-9.3-11.2-13-16.9a23.4 23.4 0 0 1-22.6 3.6c-2.2 0-4.4-.1-6.5-.5l7.4 15.3c2.5-.8 5-1.4 7.8-1.5h26.9Z" style="fill:#f05582;fill-rule:nonzero" transform="translate(-498.8 -939.2) scale(4.16667)"/><path d="M1567.4 646.2a28.7 28.7 0 0 1-11.3 2.9 23.3 23.3 0 0 0 22.6-3.6 148 148 0 0 1-3.2-5.1 29 29 0 0 1-8.1 5.8Z" style="fill:#f05582;fill-rule:nonzero" transform="translate(-498.8 -939.2) scale(4.16667)"/><path d="M1575.5 640.4a29 29 0 0 1-19.4 8.7 23.7 23.7 0 0 0 18.3-.9c1.6-.7 3-1.6 4.3-2.7a148 148 0 0 1-3.2-5.1Z" style="fill:#bc4167;fill-rule:nonzero" transform="translate(-498.8 -939.2) scale(4.16667)"/><path d="M1556.1 649a28.7 28.7 0 0 0 19.4-8.6 164.8 164.8 0 0 1-13.9-30.6 8 8 0 0 1-4.8-14.2c-4.2 1.9-26.6 10.6-38.6-5.3 0 0-3.3 6.4-1.3 17.6l12 25a28.7 28.7 0 0 0 27.2 16.2Z" style="fill:#f05582;fill-rule:nonzero" transform="translate(-498.8 -939.2) scale(4.16667)"/><path d="M1650.5 694.3a99.1 99.1 0 0 1-58.8-31.9h-27c-2.6.1-5.2.7-7.7 1.5-31.5 9.8-45.8 66.4-52.3 111.1 8.5-21.7 20.2-42.5 36.3-56.9 50.7-45.3 79.7-7 79.7-7s58.7 34.9-64.7 230.7c-19.3 30.6-42.8 44.4-67.7 47.3l-1.2 16.4h170s16.7-106.1 25.2-224.5a113.4 113.4 0 0 0-31.8-86.7Z" style="fill:#2f1347;fill-rule:nonzero" transform="translate(-498.8 -939.2) scale(4.16667)"/><path d="M1299.5 837.3c-.5 0-1 0-1.6-.2l-8-3.5c1.3 11.3-7.3 15.8-7.3 15.8l10.6 5.1a76.1 76.1 0 0 1 9.3-16l-3-1.2Z" style="fill:#f05582;fill-rule:nonzero" transform="translate(-498.8 -939.2) scale(4.16667)"/><path d="M1556 941.8c123.4-195.8 64.7-230.7 64.7-230.7s-29-38.3-79.8 7c-16 14.4-27.7 35.2-36.2 57-18.3 46.8-21.7 98-21.7 98s-73.1-47.2-177.3-38.3c0 0-1.3 1.3-3.2 3.7a87.7 87.7 0 0 0-13.8 28.3s109.4 132.7 199.6 122.3c25-2.9 48.4-16.7 67.7-47.3Z" style="fill:#452763;fill-rule:nonzero" transform="translate(-498.8 -939.2) scale(4.16667)"/><path d="m1289.8 833.6-71-30.9c0 .4-7 46.8 63.8 46.7 0 0 8.6-4.5 7.3-15.8Z" style="fill:#f05582;fill-rule:nonzero" transform="translate(-498.8 -939.2) scale(4.16667)"/><path d="M1211 796.7c-.5-.2-.7-.9-.5-1.4v-.1c.3-.6 1-.8 1.5-.6l7.2 3.1c.5.3.8 1 .6 1.5-.3.6-1 .9-1.5.6l-7.2-3Zm12.1 4c.3-.6 1-.9 1.5-.6l17 7.4c.6.2.8.9.6 1.4v.1c-.3.6-1 .8-1.5.6l-17-7.4c-.5-.2-.8-.9-.6-1.4Zm66.8 32.9 8 3.5c.5.2 1 .3 1.6.2 1.2 0 2.3-.8 2.8-2v-.2c.8-1.7 0-3.6-1.6-4.4l-94-40.8c-1.7-.7-3.6 0-4.4 1.7l-.1.3c-.7 1.7 0 3.6 1.7 4.3l15 6.5 71 30.9Z" style="fill:#4f3271;fill-rule:nonzero" transform="translate(-498.8 -939.2) scale(4.16667)"/><path d="M1240.7 809.6c.5.2 1.2 0 1.4-.6.3-.6 0-1.3-.5-1.5l-17-7.4c-.5-.3-1.2 0-1.4.5v.2c-.3.5 0 1.2.5 1.4l17 7.4ZM1219.7 799.3v-.1c.3-.6 0-1.2-.5-1.5l-7.2-3.1c-.5-.2-1.2 0-1.4.6-.3.6 0 1.3.5 1.5l7.2 3.1c.5.3 1.2 0 1.4-.5Z" style="fill:#674a9e;fill-rule:nonzero" transform="translate(-498.8 -939.2) scale(4.16667)"/><path d="M1516.9 607.9c-2-11.2 1.3-17.6 1.3-17.6 12 15.9 34.4 7.2 38.6 5.3a8.1 8.1 0 1 1 4.8 14.2 164.8 164.8 0 0 0 17.1 35.7c3.7 5.7 8 11.5 13 16.9a99.1 99.1 0 0 0 58.8 31.9c53.7 7.5 71.5-44.9 75.6-67.2 4.4-24-21.3-51.3-60.5-35.1-35.6 14.8-54.6 7.2-62.8-16.2a69 69 0 0 1-2.1-7.4c-3.8-16.1-32.5-55.4-76.1-26-33.1 22.2-20.4 48.4-12.3 59.8 2.5 3.5 4.6 5.7 4.6 5.7Z" style="fill:#4f3271;fill-rule:nonzero" transform="translate(-498.8 -939.2) scale(4.16667)"/><path d="M1560.3 598.2a4 4 0 0 1 3.5 7.1 4 4 0 0 1-3.5-7.2Zm-5.6 7a8 8 0 0 0 7 4.6 8.1 8.1 0 1 0-6.9-4.5Z" style="fill:#f05582;fill-rule:nonzero" transform="translate(-498.8 -939.2) scale(4.16667)"/><path d="M1558.5 603.5a4 4 0 1 0 7.2-3.5 4 4 0 0 0-7.2 3.5Z" style="fill:#f05582;fill-rule:nonzero" transform="translate(-498.8 -939.2) scale(4.16667)"/><path d="M1562 597.8Z" style="fill:#bc4167;fill-rule:nonzero" transform="translate(-498.8 -939.2) scale(4.16667)"/><path d="M1758.8 1303.7c1.5-77.3-12-202.8-100-296.3l-1.8-1.9h-169.9s-22.4 125.7-25.1 328.3c-.2 10.6-.3 21.4-.3 32.4 0 0 1 4.9 6 11.2 10.4 12.9 38.2 31.9 111 28.7 16-.6 34-2.4 54.6-5.5a967 967 0 0 0 112.3-24.8l7-2s5.4-27.8 6.2-70.1Z" style="fill:#f9c66c;fill-rule:nonzero" transform="translate(-498.8 -939.2) scale(4.16667)"/></svg>